<svg width="28" height="28" viewBox="0 0 28 28" fill="none" xmlns="http://www.w3.org/2000/svg">
<path fill-rule="evenodd" clip-rule="evenodd" d="M14 0C6.27083 0 0 6.27083 0 14C0 21.7292 6.27083 28 14 28C21.714 28 28 21.7292 28 14C28 6.27083 21.714 0 14 0ZM23.247 6.45283C24.9707 8.55206 25.9246 11.1777 25.9502 13.8938C25.5558 13.818 21.6078 13.013 17.6295 13.5147C17.5373 13.3163 17.4615 13.104 17.3705 12.8917C17.1231 12.3076 16.8601 11.7303 16.5818 11.1603C20.9848 9.36833 22.9892 6.78767 23.247 6.45283ZM14 2.06617C17.0368 2.06617 19.8158 3.20367 21.9263 5.0715C21.714 5.37483 19.9068 7.78983 15.6555 9.3835C13.6955 5.7855 11.5255 2.8385 11.1907 2.3835C12.1115 2.16847 13.0544 2.06158 14 2.065V2.06617ZM8.91333 3.1885C9.23183 3.61433 11.3575 6.57533 13.3467 10.0975C7.75833 11.5862 2.82333 11.5558 2.2925 11.5558C3.06717 7.8505 5.57317 4.76817 8.91333 3.1885ZM2.03467 14.0152V13.6512C2.5515 13.6663 8.351 13.7422 14.3197 11.9502C14.6685 12.6187 14.987 13.3012 15.2903 13.9848C15.1387 14.0303 14.9718 14.0758 14.8202 14.1213C8.6555 16.1105 5.37483 21.546 5.10183 22.0022C3.12715 19.8106 2.03443 16.9651 2.03467 14.0152ZM14 25.9653C11.2362 25.9653 8.68583 25.0238 6.66633 23.4453C6.87867 23.0043 9.30767 18.3272 16.0498 15.974C16.0802 15.9588 16.0965 15.9588 16.1257 15.9437C17.8115 20.3012 18.494 23.961 18.6772 25.0087C17.234 25.6317 15.6555 25.9653 14 25.9653ZM20.6663 23.9155C20.545 23.1863 19.9068 19.6945 18.3423 15.3965C22.0932 14.805 25.3727 15.7768 25.7833 15.9133C25.2665 19.2383 23.3532 22.1083 20.6663 23.9155Z" fill="#F3F4F6" fill-opacity="0.7"/>
</svg>
