<svg width="28" height="29" viewBox="0 0 28 29" fill="none" xmlns="http://www.w3.org/2000/svg">
<path fill-rule="evenodd" clip-rule="evenodd" d="M20.4153 16.8598C20.0659 16.6851 18.3532 15.8434 18.0344 15.7262C17.7155 15.6101 17.4834 15.5527 17.2501 15.902C17.018 16.249 16.351 17.0345 16.1482 17.2666C15.9442 17.4999 15.7414 17.528 15.3932 17.3545C15.0451 17.1787 13.922 16.8117 12.5915 15.6254C11.5563 14.7016 10.8565 13.561 10.6537 13.2117C10.4509 12.8635 10.6314 12.6748 10.8061 12.5013C10.9632 12.3453 11.1543 12.0945 11.3289 11.8917C11.5036 11.6877 11.561 11.5423 11.6771 11.309C11.7943 11.0769 11.7357 10.8741 11.6478 10.6995C11.561 10.5248 10.8647 8.80974 10.574 8.11223C10.2915 7.43348 10.0042 7.52609 9.79089 7.51437C9.58691 7.50499 9.3548 7.50265 9.12269 7.50265C8.89058 7.50265 8.5131 7.5894 8.19424 7.93874C7.87421 8.2869 6.97507 9.12977 6.97507 10.8448C6.97507 12.5587 8.22238 14.2151 8.39705 14.4484C8.57172 14.6805 10.853 18.1997 14.3475 19.7084C15.1799 20.0672 15.8281 20.2817 16.3334 20.4411C17.1681 20.7072 17.9277 20.6697 18.5279 20.5794C19.1961 20.4798 20.5888 19.7366 20.8795 18.923C21.1691 18.1094 21.1691 17.4119 21.0823 17.2666C20.9956 17.1212 20.7634 17.0345 20.4141 16.8598H20.4153ZM14.0592 25.5382H14.0545C11.9789 25.5386 9.94138 24.9806 8.15556 23.9228L7.73354 23.6719L3.34686 24.8231L4.51797 20.5466L4.24249 20.1082C3.08209 18.2611 2.468 16.1233 2.47117 13.942C2.47351 7.55305 7.67141 2.35516 14.0639 2.35516C17.1587 2.35516 20.0683 3.56261 22.2558 5.75243C23.3347 6.82692 24.1899 8.10469 24.7718 9.51182C25.3537 10.9189 25.6508 12.4275 25.646 13.9502C25.6436 20.3391 20.4458 25.5382 14.0592 25.5382ZM23.9204 4.08896C22.6288 2.78881 21.092 1.75793 19.399 1.05604C17.7061 0.354152 15.8907 -0.00477851 14.058 4.80372e-05C6.37486 4.80372e-05 0.119573 6.25417 0.117228 13.9408C0.116056 16.3979 0.757294 18.7964 1.97764 20.91L0 28.1348L7.39006 26.1958C9.43437 27.3096 11.7253 27.8933 14.0533 27.8933H14.0592C21.7423 27.8933 27.9976 21.6392 27.9999 13.9514C28.0056 12.1194 27.648 10.3045 26.9477 8.61166C26.2475 6.91881 25.2185 5.3816 23.9204 4.08896Z" fill="#F3F4F6" fill-opacity="0.7"/>
</svg>
