<svg width="114" height="20" viewBox="0 0 114 20" fill="none" xmlns="http://www.w3.org/2000/svg">
<path d="M0.569856 1.54545H5.12099L9.92781 13.2727H10.1324L14.9392 1.54545H19.4903V19H15.9108V7.6392H15.7659L11.2488 18.9148H8.81133L4.29429 7.59659H4.1494V19H0.569856V1.54545ZM21.9826 19V5.90909H25.6133V19H21.9826ZM23.8065 4.22159C23.2667 4.22159 22.8036 4.04261 22.4173 3.68466C22.0366 3.32102 21.8462 2.88636 21.8462 2.38068C21.8462 1.88068 22.0366 1.4517 22.4173 1.09375C22.8036 0.730113 23.2667 0.548295 23.8065 0.548295C24.3462 0.548295 24.8065 0.730113 25.1872 1.09375C25.5735 1.4517 25.7667 1.88068 25.7667 2.38068C25.7667 2.88636 25.5735 3.32102 25.1872 3.68466C24.8065 4.04261 24.3462 4.22159 23.8065 4.22159ZM31.3314 15.233L31.34 10.8778H31.8684L36.0616 5.90909H40.2292L34.5957 12.4886H33.7349L31.3314 15.233ZM28.0417 19V1.54545H31.6724V19H28.0417ZM36.2235 19L32.3712 13.2983L34.7917 10.733L40.4763 19H36.2235ZM46.9573 19.2557C45.6107 19.2557 44.4516 18.983 43.48 18.4375C42.5141 17.8864 41.7698 17.108 41.247 16.1023C40.7243 15.0909 40.463 13.8949 40.463 12.5142C40.463 11.1676 40.7243 9.9858 41.247 8.96875C41.7698 7.9517 42.5056 7.15909 43.4544 6.59091C44.409 6.02273 45.5283 5.73864 46.8124 5.73864C47.676 5.73864 48.48 5.87784 49.2243 6.15625C49.9743 6.42898 50.6277 6.84091 51.1845 7.39205C51.747 7.94318 52.1845 8.63636 52.497 9.47159C52.8095 10.3011 52.9658 11.2727 52.9658 12.3864V13.3835H41.9118V11.1335H49.5482C49.5482 10.6108 49.4345 10.1477 49.2073 9.74432C48.98 9.34091 48.6647 9.02557 48.2612 8.7983C47.8635 8.56534 47.4005 8.44886 46.872 8.44886C46.3209 8.44886 45.8323 8.5767 45.4061 8.83239C44.9857 9.08239 44.6561 9.42045 44.4175 9.84659C44.1789 10.267 44.0567 10.7358 44.051 11.2528V13.392C44.051 14.0398 44.1703 14.5994 44.409 15.071C44.6533 15.5426 44.997 15.9062 45.4402 16.1619C45.8834 16.4176 46.409 16.5455 47.0169 16.5455C47.4203 16.5455 47.7897 16.4886 48.1249 16.375C48.4601 16.2614 48.747 16.0909 48.9857 15.8636C49.2243 15.6364 49.4061 15.358 49.5311 15.0284L52.8891 15.25C52.7186 16.0568 52.3692 16.7614 51.8408 17.3636C51.3181 17.9602 50.6419 18.4261 49.8124 18.7614C48.9885 19.0909 48.0368 19.2557 46.9573 19.2557ZM56.9773 19.2216C56.4148 19.2216 55.9318 19.0227 55.5284 18.625C55.1307 18.2216 54.9318 17.7386 54.9318 17.1761C54.9318 16.6193 55.1307 16.142 55.5284 15.7443C55.9318 15.3466 56.4148 15.1477 56.9773 15.1477C57.5227 15.1477 58 15.3466 58.4091 15.7443C58.8182 16.142 59.0227 16.6193 59.0227 17.1761C59.0227 17.5511 58.9261 17.8949 58.733 18.2074C58.5455 18.5142 58.2983 18.7614 57.9915 18.9489C57.6847 19.1307 57.3466 19.2216 56.9773 19.2216ZM61.5917 19V1.54545H65.2821V15.9574H72.765V19H61.5917ZM78.3937 19.2472C77.5585 19.2472 76.8141 19.1023 76.1607 18.8125C75.5073 18.517 74.9903 18.0824 74.6096 17.5085C74.2346 16.929 74.0471 16.2074 74.0471 15.3438C74.0471 14.6165 74.1806 14.0057 74.4477 13.5114C74.7147 13.017 75.0784 12.6193 75.5386 12.3182C75.9988 12.017 76.5215 11.7898 77.1068 11.6364C77.6977 11.483 78.317 11.375 78.9647 11.3125C79.7261 11.233 80.3397 11.1591 80.8056 11.0909C81.2715 11.017 81.6096 10.9091 81.8198 10.767C82.0301 10.625 82.1352 10.4148 82.1352 10.1364V10.0852C82.1352 9.54545 81.9647 9.12784 81.6238 8.83239C81.2886 8.53693 80.8113 8.3892 80.192 8.3892C79.5386 8.3892 79.0187 8.53409 78.6323 8.82386C78.246 9.10795 77.9903 9.46591 77.8653 9.89773L74.5073 9.625C74.6778 8.82955 75.013 8.14205 75.513 7.5625C76.013 6.97727 76.6579 6.52841 77.4477 6.21591C78.2431 5.89773 79.1636 5.73864 80.209 5.73864C80.9363 5.73864 81.6323 5.82386 82.2971 5.99432C82.9676 6.16477 83.5613 6.42898 84.0784 6.78693C84.6011 7.14489 85.013 7.60511 85.3141 8.16761C85.6153 8.72443 85.7659 9.39205 85.7659 10.1705V19H82.3227V17.1847H82.2204C82.0102 17.5938 81.7289 17.9545 81.3766 18.267C81.0244 18.5739 80.6011 18.8153 80.1068 18.9915C79.6124 19.1619 79.0414 19.2472 78.3937 19.2472ZM79.4335 16.7415C79.9676 16.7415 80.4391 16.6364 80.8482 16.4261C81.2573 16.2102 81.5784 15.9205 81.8113 15.5568C82.0443 15.1932 82.1607 14.7812 82.1607 14.321V12.9318C82.0471 13.0057 81.8909 13.0739 81.692 13.1364C81.4988 13.1932 81.2801 13.2472 81.0357 13.2983C80.7914 13.3437 80.5471 13.3864 80.3028 13.4261C80.0585 13.4602 79.8369 13.4915 79.638 13.5199C79.2119 13.5824 78.8397 13.6818 78.5215 13.8182C78.2034 13.9545 77.9562 14.1392 77.7801 14.3722C77.6039 14.5994 77.5159 14.8835 77.5159 15.2244C77.5159 15.7188 77.6948 16.0966 78.0528 16.358C78.4164 16.6136 78.8766 16.7415 79.4335 16.7415ZM91.3924 15.233L91.4009 10.8778H91.9293L96.1225 5.90909H100.29L94.6566 12.4886H93.7958L91.3924 15.233ZM88.1026 19V1.54545H91.7333V19H88.1026ZM96.2844 19L92.4322 13.2983L94.8526 10.733L100.537 19H96.2844ZM107.018 19.2557C105.672 19.2557 104.513 18.983 103.541 18.4375C102.575 17.8864 101.831 17.108 101.308 16.1023C100.785 15.0909 100.524 13.8949 100.524 12.5142C100.524 11.1676 100.785 9.9858 101.308 8.96875C101.831 7.9517 102.567 7.15909 103.515 6.59091C104.47 6.02273 105.589 5.73864 106.873 5.73864C107.737 5.73864 108.541 5.87784 109.285 6.15625C110.035 6.42898 110.689 6.84091 111.245 7.39205C111.808 7.94318 112.245 8.63636 112.558 9.47159C112.87 10.3011 113.027 11.2727 113.027 12.3864V13.3835H101.973V11.1335H109.609C109.609 10.6108 109.495 10.1477 109.268 9.74432C109.041 9.34091 108.726 9.02557 108.322 8.7983C107.924 8.56534 107.461 8.44886 106.933 8.44886C106.382 8.44886 105.893 8.5767 105.467 8.83239C105.047 9.08239 104.717 9.42045 104.478 9.84659C104.24 10.267 104.118 10.7358 104.112 11.2528V13.392C104.112 14.0398 104.231 14.5994 104.47 15.071C104.714 15.5426 105.058 15.9062 105.501 16.1619C105.944 16.4176 106.47 16.5455 107.078 16.5455C107.481 16.5455 107.851 16.4886 108.186 16.375C108.521 16.2614 108.808 16.0909 109.047 15.8636C109.285 15.6364 109.467 15.358 109.592 15.0284L112.95 15.25C112.78 16.0568 112.43 16.7614 111.902 17.3636C111.379 17.9602 110.703 18.4261 109.873 18.7614C109.049 19.0909 108.098 19.2557 107.018 19.2557Z" fill="url(#paint0_linear_15_309)"/>
<defs>
<linearGradient id="paint0_linear_15_309" x1="2.01698" y1="14.1143" x2="87.4628" y2="8.62706" gradientUnits="userSpaceOnUse">
<stop stop-color="#9845E8"/>
<stop offset="0.549502" stop-color="#33D2FF"/>
<stop offset="1" stop-color="#DD5789"/>
</linearGradient>
</defs>
</svg>
